<svg width="97" height="40" viewBox="0 0 97 40" fill="none" xmlns="http://www.w3.org/2000/svg">
<g clip-path="url(#clip0_1451_1805)">
<path d="M34.4689 8.18747H19.2065C18.9062 8.18747 18.7594 7.82597 18.973 7.61843L26.3673 0.194168C26.6275 -0.0669199 27.048 -0.0669199 27.3082 0.194168L34.7025 7.61174C34.9161 7.82597 34.7626 8.18078 34.4689 8.18078V8.18747Z" fill="#F4B527"/>
<path d="M9.77009 19.6621H25.0325C25.3328 19.6621 25.4796 20.0236 25.2661 20.2312L17.8718 27.6487C17.6115 27.9098 17.1911 27.9098 16.9308 27.6487L9.53652 20.2312C9.32297 20.0169 9.47646 19.6621 9.77009 19.6621Z" fill="#374E9D"/>
<path d="M15.5961 8.18749H0.333725C0.0334152 8.18749 -0.113403 7.82598 0.100151 7.61845L7.49444 0.194183C7.75471 -0.0669046 8.17514 -0.0669046 8.43541 0.194183L15.8297 7.61176C16.0433 7.82598 15.8898 8.18079 15.5961 8.18079V8.18749Z" fill="#F4B527"/>
<path d="M0.100158 10.7648L6.5735 17.2585C6.82709 17.5129 7.16077 17.6535 7.51447 17.6535H27.2882C27.6419 17.6535 27.9822 17.5129 28.2292 17.2585L34.7025 10.7648C34.916 10.5506 34.7626 10.1958 34.4689 10.1958H0.333732C0.0334228 10.1958 -0.113395 10.5573 0.100158 10.7648Z" fill="#374E9D"/>
<path d="M48.8504 28.2109L47.5291 24.4017H41.0224L39.701 28.2109H36.2641L42.297 11.7021H46.4279L52.4541 28.2109H48.8504ZM44.3124 14.8083H44.239L41.8632 21.7707H46.6949L44.3191 14.8083H44.3124Z" fill="#374E9D"/>
<path d="M63.2653 28.2109V18.4034H58.0066V28.2109H54.8833V18.4034H52.9881V16.0402H54.8833C54.8833 14.2594 55.217 12.7398 56.5851 11.7289C57.7596 10.8385 59.348 10.5707 61.5836 10.5707C62.9517 10.5707 64.2997 10.6644 65.5477 10.785V13.2419C64.4465 13.1481 63.1252 13.0745 61.9239 13.0745C58.774 13.0745 58.0066 13.918 58.0066 16.0402H66.3885V28.2109H63.2653Z" fill="#374E9D"/>
<path d="M70.5262 28.2107V10.912H73.6494V28.2107H70.5262Z" fill="#374E9D"/>
<path d="M85.6084 28.2108L85.535 27.5615C83.9467 28.0903 82.6253 28.5523 81.0904 28.5523C80.056 28.5523 79.0016 28.2845 78.2275 27.5615C77.4333 26.8385 77.0529 25.9481 77.0529 24.6694C77.0529 23.3908 77.5801 22.092 78.8081 21.4426C79.7423 20.9338 80.7033 20.8401 82.0047 20.8401C82.8455 20.8401 84.0468 20.9138 85.1279 21.0075V20.5991C85.1279 18.7648 84.3604 18.0418 81.8111 18.0418C80.7567 18.0418 79.5755 18.1154 78.4744 18.2359V15.9196C79.769 15.7991 81.0904 15.7054 82.3917 15.7054C84.1469 15.7054 85.8486 15.8995 86.9565 16.8636C88.111 17.8544 88.2578 19.2 88.2578 20.9138V28.2175H85.6151L85.6084 28.2108ZM85.1279 23.0025C84.3137 22.9087 83.2526 22.8552 82.5319 22.8552C80.73 22.8552 80.0827 23.4845 80.0827 24.569C80.0827 25.6535 80.7767 26.3297 82.0514 26.3297C83.0124 26.3297 84.0935 26.0418 85.1279 25.7272V23.0025Z" fill="#374E9D"/>
<path d="M95.9456 16.9238C95.3383 17.4594 94.464 17.6535 93.6232 17.6535C92.7823 17.6535 91.9214 17.446 91.3075 16.9104C90.6334 16.3347 90.253 15.4042 90.253 13.918C90.253 12.4318 90.6201 11.5146 91.2941 10.9255C91.9214 10.4033 92.7823 10.1958 93.6298 10.1958C94.4774 10.1958 95.3316 10.4033 95.9456 10.9389C96.6129 11.5146 97 12.4452 97 13.918C97 15.3908 96.6263 16.3414 95.9456 16.9171V16.9238ZM93.6365 10.6778C91.6678 10.6778 90.7802 11.6284 90.7802 13.8979C90.7802 16.1673 91.7279 17.1715 93.6165 17.1715C95.5985 17.1715 96.4861 16.2276 96.4861 13.9381C96.4861 11.6485 95.5385 10.6778 93.6365 10.6778ZM94.6109 16.0535L93.7433 14.4134H92.8891V16.0535H92.2351V11.7556H93.5831C94.1237 11.7556 94.5975 11.8159 94.9178 12.1038C95.1914 12.3581 95.2715 12.713 95.2715 13.0945C95.2715 13.4427 95.1581 13.764 94.9379 13.9916C94.8044 14.1523 94.6042 14.246 94.404 14.3063L95.3449 16.0535H94.6175H94.6109ZM93.5698 12.2577H92.9024V13.8979H93.5698C94.3306 13.8979 94.5842 13.6167 94.5842 13.0812C94.5842 12.4853 94.2371 12.251 93.5698 12.251V12.2577Z" fill="#F4B527"/>
<path d="M44.1322 38.2463V33.2923H44.1055L42.1301 38.2463H41.4895L39.4807 33.2923H39.4607V38.2463H38.8935V32.2212H39.6743L41.8298 37.55H41.8632L43.9587 32.2212H44.7595V38.2463H44.1255H44.1322Z" fill="#374E9D"/>
<path d="M48.083 38.3667C47.5892 38.3667 47.082 38.2462 46.7149 37.8646C46.3012 37.4362 46.1343 36.8002 46.1343 36.0169C46.1343 35.2337 46.3279 34.5776 46.795 34.1424C47.122 33.8546 47.5291 33.6738 48.1297 33.6738C48.6035 33.6738 49.0707 33.7943 49.4177 34.1157C49.9182 34.5642 49.985 35.2337 49.985 36.1508H46.7616C46.7817 37.2755 47.2622 37.8311 48.1831 37.8311C48.717 37.8311 49.2442 37.7173 49.8315 37.5701V38.0989C49.2842 38.2328 48.6769 38.3734 48.0897 38.3734L48.083 38.3667ZM48.0697 34.1558C47.142 34.1558 46.8217 34.765 46.7616 35.6755H49.3843C49.351 34.6713 49.0106 34.1558 48.0697 34.1558Z" fill="#374E9D"/>
<path d="M54.2559 38.246L54.2292 38.0184C53.7487 38.1857 53.1948 38.3732 52.6743 38.3732C52.1538 38.3732 51.7533 38.2125 51.4397 37.8979C51.0259 37.4761 50.8724 36.8602 50.8724 36.0301C50.8724 35.1598 51.1794 34.4836 51.6332 34.1154C52.0136 33.8142 52.4808 33.687 53.0213 33.687C53.4151 33.687 53.8288 33.774 54.1625 33.9012V31.9397H54.7698V38.2527H54.2626L54.2559 38.246ZM54.1625 37.523V34.4301C53.8355 34.2694 53.4551 34.1958 53.1014 34.1958C52.067 34.1958 51.4998 34.738 51.4998 36.0234C51.4998 37.3088 52.0403 37.8443 52.8144 37.8443C53.2549 37.8443 53.7087 37.697 54.1625 37.5297V37.523Z" fill="#374E9D"/>
<path d="M56.4249 32.6562V31.9332H57.1189V32.6562H56.4249ZM57.0322 38.2462H56.4716V33.8077H57.0789V38.2462H57.0322Z" fill="#374E9D"/>
<path d="M61.5968 38.2461L61.5768 38.0185C61.0095 38.2059 60.5224 38.3733 59.9751 38.3733C59.6081 38.3733 59.2277 38.2862 58.9474 38.0318C58.6604 37.7775 58.5203 37.4494 58.5203 37.0009C58.5203 36.5523 58.7138 36.077 59.161 35.8494C59.4946 35.6754 59.835 35.6486 60.3021 35.6486C60.6358 35.6486 61.1096 35.6754 61.51 35.7222V35.5013C61.51 34.5172 61.1363 34.2159 60.0752 34.2159C59.7149 34.2159 59.3678 34.2494 59.0342 34.2963V33.7607C59.4079 33.7272 59.7949 33.6938 60.162 33.6938C60.7159 33.6938 61.3032 33.754 61.7036 34.1423C62.0706 34.5038 62.1173 34.9791 62.1173 35.6017V38.2595H61.6035L61.5968 38.2461ZM61.51 36.1908C61.1363 36.144 60.6358 36.1172 60.2821 36.1172C59.4212 36.1172 59.1142 36.4452 59.1142 36.9875C59.1142 37.5298 59.4813 37.8645 60.0953 37.8645C60.5424 37.8645 61.0162 37.7239 61.51 37.5565V36.1841V36.1908Z" fill="#374E9D"/>
<path d="M69.9654 38.2463L67.5563 35.3609L66.8489 36.1174V38.2463H66.2149V32.2212H66.8489V35.3074L69.6918 32.2212H70.526L68.0034 34.9124L70.793 38.2463H69.9788H69.9654Z" fill="#374E9D"/>
<path d="M74.4367 38.2461L74.4167 38.0185C73.8494 38.2059 73.3623 38.3733 72.815 38.3733C72.448 38.3733 72.0676 38.2862 71.7873 38.0318C71.5003 37.7775 71.3602 37.4494 71.3602 37.0009C71.3602 36.5523 71.5537 36.077 72.0009 35.8494C72.3345 35.6754 72.6749 35.6486 73.142 35.6486C73.4757 35.6486 73.9495 35.6754 74.3499 35.7222V35.5013C74.3499 34.5172 73.9696 34.2159 72.9085 34.2159C72.5481 34.2159 72.2011 34.2494 71.8674 34.2963V33.7607C72.2478 33.7272 72.6282 33.6938 73.0019 33.6938C73.5558 33.6938 74.1431 33.754 74.5435 34.1423C74.9105 34.5038 74.9572 34.9791 74.9572 35.6017V38.2595H74.4367V38.2461ZM74.3433 36.1908C73.9629 36.144 73.469 36.1172 73.1153 36.1172C72.2545 36.1172 71.9475 36.4452 71.9475 36.9875C71.9475 37.5298 72.3145 37.8645 72.9285 37.8645C73.3756 37.8645 73.8494 37.7239 74.3433 37.5565V36.1841V36.1908Z" fill="#374E9D"/>
<path d="M76.5723 38.2461V33.8076H77.0795L77.1062 34.0687C77.7535 33.8343 78.0938 33.6804 78.6611 33.6804H78.7212V34.2226H78.601C78.1272 34.2226 77.8269 34.3297 77.1796 34.5574V38.2394H76.5723V38.2461Z" fill="#374E9D"/>
<path d="M79.2417 39.9533V39.411C79.4619 39.4378 79.6354 39.4579 79.7956 39.4579C80.2894 39.4579 80.5831 39.2236 80.8033 38.5809L80.9167 38.2529L79.0481 33.8144H79.7155L81.2304 37.55H81.2571L82.5985 33.8144H83.2325L81.3839 38.755C81.0502 39.6454 80.5831 40.0069 79.8423 40.0069C79.6754 40.0069 79.4419 39.9868 79.2483 39.96L79.2417 39.9533Z" fill="#374E9D"/>
<path d="M86.8963 38.2461L86.8763 38.0185C86.309 38.2059 85.8219 38.3733 85.2746 38.3733C84.9076 38.3733 84.5272 38.2862 84.2469 38.0318C83.96 37.7775 83.8198 37.4494 83.8198 37.0009C83.8198 36.5523 84.0133 36.077 84.4605 35.8494C84.7942 35.6754 85.1345 35.6486 85.6017 35.6486C85.9353 35.6486 86.4092 35.6754 86.8096 35.7222V35.5013C86.8096 34.5172 86.4292 34.2159 85.3681 34.2159C85.0077 34.2159 84.6607 34.2494 84.327 34.2963V33.7607C84.7074 33.7272 85.0878 33.6938 85.4615 33.6938C86.0154 33.6938 86.6027 33.754 87.0031 34.1423C87.3701 34.5038 87.4169 34.9791 87.4169 35.6017V38.2595H86.8963V38.2461ZM86.8029 36.1908C86.4225 36.144 85.9287 36.1172 85.575 36.1172C84.7141 36.1172 84.4071 36.4452 84.4071 36.9875C84.4071 37.5298 84.7741 37.8645 85.3881 37.8645C85.8352 37.8645 86.3091 37.7239 86.8029 37.5565V36.1841V36.1908Z" fill="#374E9D"/>
</g>
<defs>
<clipPath id="clip0_1451_1805">
<rect width="97" height="40" fill="white"/>
</clipPath>
</defs>
</svg>
